<?xml version="1.0" standalone="no"?>
<!DOCTYPE svg PUBLIC "-//W3C//DTD SVG 20010904//EN"
 "http://www.w3.org/TR/2001/REC-SVG-20010904/DTD/svg10.dtd">
<svg version="1.0" xmlns="http://www.w3.org/2000/svg"
 width="945.000000pt" height="2048.000000pt" viewBox="0 0 945.000000 2048.000000"
 preserveAspectRatio="xMidYMid meet">

<g transform="translate(0.000000,2048.000000) scale(0.100000,-0.100000)"
fill="#000000" stroke="none">
<path d="M1615 20191 c-39 -16 -57 -49 -64 -113 -4 -35 -14 -74 -24 -88 -42
-61 -8 -36 103 75 65 65 117 121 115 123 -3 3 -11 0 -18 -7 -11 -8 -21 -8 -43
4 -32 17 -40 17 -69 6z m61 -25 c18 -14 17 -17 -35 -70 -30 -30 -58 -53 -63
-50 -11 7 -10 57 2 89 15 40 63 55 96 31z"/>
<path d="M1968 20171 c-18 -16 -30 -33 -26 -36 7 -8 76 44 77 58 2 15 -20 6
-51 -22z"/>
<path d="M2160 20195 c0 -11 55 -54 69 -55 10 0 4 11 -14 30 -25 27 -55 40
-55 25z"/>
<path d="M7100 20150 c0 -54 -4 -59 -32 -33 -10 9 -21 13 -26 9 -4 -5 8 -20
26 -35 17 -15 32 -31 32 -36 0 -5 -15 -21 -32 -36 -18 -15 -30 -30 -26 -35 5
-4 16 0 26 9 28 25 32 21 32 -26 0 -24 3 -46 6 -50 4 -3 29 13 56 36 l50 42
-31 26 c-17 14 -31 30 -31 35 0 6 14 21 32 34 l32 23 -48 44 c-26 24 -52 43
-57 43 -5 0 -9 -22 -9 -50z m58 -13 c21 -22 21 -24 5 -39 -39 -33 -43 -31 -43
16 0 52 7 56 38 23z m0 -120 c21 -22 21 -24 5 -39 -39 -33 -43 -31 -43 16 0
52 7 56 38 23z"/>
<path d="M7942 20180 c-34 -8 -112 -57 -112 -71 0 -17 22 -20 38 -6 37 32 86
49 143 49 48 0 68 -6 110 -32 62 -38 90 -27 35 15 -61 46 -139 63 -214 45z"/>
<path d="M8371 20176 c-14 -8 -28 -22 -32 -32 -12 -30 -10 -141 2 -168 20 -43
50 -47 278 -44 210 3 213 3 232 27 27 34 27 168 0 202 -19 24 -22 24 -238 26
-171 2 -223 0 -242 -11z m457 -28 c7 -7 12 -42 12 -88 0 -46 -5 -81 -12 -88
-9 -9 -73 -12 -228 -12 -155 0 -219 3 -228 12 -7 7 -12 42 -12 88 0 46 5 81
12 88 17 17 439 17 456 0z"/>
<path d="M8527 20107 c-28 -20 -33 -78 -9 -107 17 -22 23 -23 46 -12 45 20 32
82 -18 82 l-31 1 30 24 c31 26 15 37 -18 12z m41 -80 c3 -22 -1 -27 -18 -27
-23 0 -35 22 -26 46 10 25 41 12 44 -19z"/>
<path d="M8630 20108 c0 -7 -3 -24 -7 -37 -5 -22 -4 -23 19 -18 30 8 52 -12
42 -37 -7 -19 -40 -22 -47 -3 -2 6 -8 9 -12 5 -11 -11 14 -38 36 -38 10 0 26
11 34 24 21 32 5 66 -30 66 -16 0 -25 6 -25 15 0 9 9 15 24 15 14 0 28 5 31
10 4 6 -8 10 -29 10 -22 0 -36 -5 -36 -12z"/>
<path d="M2484 20170 c-12 -4 -31 -21 -44 -37 -18 -23 -21 -37 -17 -76 5 -54
25 -82 73 -97 74 -25 144 30 144 110 0 36 -6 48 -36 76 -37 35 -75 43 -120 24z
m56 -70 c0 -19 9 -35 27 -48 35 -25 24 -39 -16 -22 -32 13 -38 27 -33 77 5 39
22 34 22 -7z"/>
<path d="M2033 20154 c-42 -21 -77 -91 -68 -134 9 -42 49 -87 90 -100 94 -31
187 68 155 165 -22 67 -112 102 -177 69z m133 -38 c24 -24 34 -43 34 -65 0
-124 -160 -162 -205 -48 -21 52 -6 101 39 128 49 30 92 25 132 -15z"/>
<path d="M2040 20073 c0 -12 43 -53 57 -53 14 0 43 34 43 50 0 9 -9 5 -25 -10
l-25 -23 -25 23 c-14 13 -25 19 -25 13z"/>
<path d="M633 20148 c-38 -12 -46 -41 -10 -36 21 3 22 -1 25 -74 2 -60 6 -78
17 -78 12 0 15 19 15 100 0 55 -3 100 -7 99 -5 -1 -23 -6 -40 -11z"/>
<path d="M776 20129 c-12 -62 -9 -68 37 -71 38 -3 42 -6 45 -32 5 -42 -24 -59
-52 -30 -9 8 -23 14 -31 12 -14 -3 -14 -6 0 -25 22 -32 87 -32 109 -1 34 49 7
108 -49 108 -31 0 -34 2 -26 22 6 17 16 23 41 23 18 0 35 6 37 13 3 8 -11 12
-50 12 -53 0 -55 -1 -61 -31z"/>
<path d="M1062 20094 c-53 -83 -54 -94 -1 -94 32 0 42 -4 46 -20 7 -25 33 -26
33 -1 0 10 7 22 16 25 16 6 16 8 0 24 -11 13 -16 37 -16 75 0 80 -23 78 -78
-9z m46 -26 c-2 -25 -8 -34 -25 -36 -27 -4 -28 0 -8 38 20 40 37 38 33 -2z"/>
<path d="M1190 20150 c0 -5 22 -10 48 -10 27 0 51 -3 55 -6 3 -4 -4 -27 -17
-53 -13 -25 -31 -63 -39 -83 -15 -36 -15 -38 2 -38 16 0 37 39 98 188 4 9 -14
12 -71 12 -44 0 -76 -4 -76 -10z"/>
<path d="M2881 20150 c-17 -10 -41 -77 -41 -113 0 -26 6 -36 25 -45 33 -15 48
-15 42 1 -3 9 13 12 64 12 38 0 65 -1 59 -3 -18 -6 -11 -22 10 -22 11 0 29 9
41 21 23 23 20 58 -12 120 l-18 37 -80 -1 c-44 0 -85 -3 -90 -7z m63 -77 c8
-19 -17 -48 -33 -39 -12 8 -15 39 -4 49 12 12 31 7 37 -10z m86 1 c11 -12 10
-18 -3 -32 -16 -15 -18 -15 -34 0 -13 14 -14 20 -3 32 7 9 16 16 20 16 4 0 13
-7 20 -16z"/>
<path d="M3306 20136 c-13 -20 -36 -89 -36 -108 0 -5 9 -17 20 -28 22 -22 65
-28 57 -7 -3 9 12 12 58 12 46 0 61 -3 58 -12 -6 -16 9 -16 42 -1 20 9 25 18
25 50 0 21 -9 56 -20 77 l-19 39 -85 0 c-77 0 -87 -2 -100 -22z m74 -62 c11
-12 10 -18 -3 -32 -16 -15 -18 -15 -34 0 -13 14 -14 20 -3 32 7 9 16 16 20 16
4 0 13 -7 20 -16z m88 -8 c6 -29 -15 -43 -35 -24 -14 14 -14 20 -3 33 16 19
34 15 38 -9z"/>
<path d="M7588 20129 c-15 -8 -18 -25 -18 -99 0 -83 1 -90 20 -90 19 0 20 7
20 100 0 55 -1 100 -2 100 -2 0 -11 -5 -20 -11z"/>
<path d="M1522 20085 c-1 -19 3 -35 8 -35 6 0 10 16 10 35 0 19 -4 35 -8 35
-5 0 -9 -16 -10 -35z"/>
<path d="M1750 20085 c0 -19 5 -35 10 -35 6 0 10 16 10 35 0 19 -4 35 -10 35
-5 0 -10 -16 -10 -35z"/>
<path d="M7945 20104 c-47 -17 -70 -38 -60 -53 4 -8 17 -5 41 10 45 28 113 27
161 -1 40 -24 65 -14 34 14 -23 21 -87 45 -116 45 -11 0 -38 -7 -60 -15z"/>
<path d="M942 20098 c7 -19 38 -22 38 -4 0 10 -9 16 -21 16 -12 0 -19 -5 -17
-12z"/>
<path d="M1722 20063 c3 -27 8 -56 12 -65 7 -16 1 -18 -67 -18 -42 0 -79 -4
-82 -10 -4 -6 28 -10 89 -10 53 0 96 3 96 8 -1 4 -7 18 -15 32 -8 14 -14 44
-15 68 0 23 -5 42 -11 42 -7 0 -9 -17 -7 -47z"/>
<path d="M1501 20084 c0 -11 3 -14 6 -6 3 7 2 16 -1 19 -3 4 -6 -2 -5 -13z"/>
<path d="M1781 20084 c0 -11 3 -14 6 -6 3 7 2 16 -1 19 -3 4 -6 -2 -5 -13z"/>
<path d="M8894 20086 c-8 -22 -1 -59 14 -64 8 -2 12 8 12 32 0 37 -16 57 -26
32z"/>
<path d="M7513 20083 c-9 -3 -13 -28 -13 -74 0 -62 2 -69 20 -69 18 0 20 7 20
75 0 73 -2 79 -27 68z"/>
<path d="M7963 20035 c-18 -8 -33 -18 -33 -24 0 -16 21 -24 33 -12 14 14 62
14 89 0 31 -17 46 5 17 24 -37 24 -71 28 -106 12z"/>
<path d="M7443 20033 c-8 -3 -13 -23 -13 -49 0 -37 3 -44 20 -44 17 0 20 7 20
50 0 49 -3 53 -27 43z"/>
<path d="M7363 19981 c-31 -26 -29 -41 7 -41 27 0 30 3 30 30 0 35 -6 36 -37
11z"/>
<path d="M947 19984 c-9 -10 2 -24 19 -24 8 0 14 7 14 15 0 15 -21 21 -33 9z"/>
<path d="M7990 19970 c-13 -8 -13 -11 2 -26 14 -14 20 -15 33 -4 12 10 13 16
4 26 -13 16 -19 17 -39 4z"/>
<path d="M8118 19956 c-7 -33 7 -55 15 -24 9 32 8 48 -2 48 -5 0 -11 -11 -13
-24z"/>
<path d="M8161 19945 c1 -40 1 -40 10 -10 5 18 5 33 -1 39 -7 7 -10 -4 -9 -29z"/>
<path d="M1628 19928 c8 -8 17 -8 34 0 22 10 21 11 -11 11 -27 1 -32 -2 -23
-11z"/>
<path d="M2686 19159 c-4 -12 -20 -105 -72 -414 -8 -49 -17 -98 -20 -107 -5
-16 2 -18 49 -18 l55 0 17 100 18 100 42 0 c24 0 47 -6 52 -12 5 -7 21 -52 37
-100 l27 -88 55 0 c30 0 54 1 54 3 0 2 -16 52 -35 112 -33 102 -34 110 -18
119 10 5 34 26 54 46 74 77 63 191 -22 239 -34 20 -60 24 -165 29 -100 4 -124
2 -128 -9z m239 -99 c13 -15 16 -30 12 -61 -8 -62 -40 -89 -114 -96 -34 -3
-63 -1 -66 4 -5 8 8 126 19 161 2 8 25 12 67 12 51 0 68 -4 82 -20z"/>
<path d="M3156 19162 c-14 -23 -68 -393 -62 -425 8 -43 61 -102 105 -116 95
-31 206 5 260 85 22 31 48 147 79 342 20 121 19 122 -32 122 -25 0 -48 -5 -51
-10 -4 -6 -22 -99 -40 -207 -32 -186 -36 -198 -65 -227 -25 -25 -39 -31 -75
-31 -85 0 -90 33 -45 289 16 93 27 173 24 177 -7 12 -91 12 -98 1z"/>
<path d="M3653 19158 c-9 -11 -94 -491 -93 -525 0 -9 17 -13 50 -13 58 0 49
-20 85 194 23 139 30 166 38 155 2 -2 35 -80 73 -174 l70 -170 55 0 54 0 46
265 c25 146 44 268 42 273 -6 10 -91 9 -98 -2 -3 -5 -19 -85 -35 -178 -17 -92
-32 -172 -33 -177 -2 -5 -36 72 -77 170 -40 98 -78 182 -84 186 -18 12 -83 9
-93 -4z"/>
<path d="M4366 19158 c-4 -12 -21 -110 -72 -413 -8 -49 -17 -98 -20 -107 -5
-17 8 -18 175 -18 166 0 181 1 181 18 0 9 3 27 6 40 6 22 6 22 -115 22 l-121
0 0 25 c0 13 5 47 11 75 l11 50 103 0 c112 0 114 2 115 68 0 21 -3 22 -100 22
-113 0 -106 -7 -92 90 l7 45 125 5 124 5 7 35 c4 19 5 38 3 42 -3 5 -82 8
-175 8 -127 0 -171 -3 -173 -12z"/>
<path d="M4786 19158 c-4 -12 -21 -110 -72 -413 -8 -49 -17 -98 -20 -107 -5
-16 2 -18 50 -18 31 0 56 4 56 8 0 17 60 335 64 339 5 5 23 -34 97 -214 l54
-133 52 0 c47 0 53 3 58 23 13 63 85 488 85 506 0 18 -6 21 -44 21 -24 0 -48
-6 -53 -12 -5 -7 -22 -89 -37 -183 -16 -93 -29 -171 -30 -172 -4 -4 -37 71
-97 217 -28 69 -56 131 -61 138 -6 6 -30 12 -55 12 -26 0 -45 -5 -47 -12z"/>
<path d="M5412 19154 c-53 -27 -110 -92 -133 -153 -26 -68 -37 -212 -20 -264
36 -109 150 -153 289 -112 85 25 99 45 117 157 8 54 15 102 15 108 0 6 -39 10
-100 10 l-100 0 -6 -27 c-3 -16 -7 -34 -10 -40 -2 -9 11 -13 47 -13 l51 0 -7
-47 c-8 -54 -24 -70 -82 -79 -48 -7 -99 16 -109 51 -22 67 5 243 44 290 64 78
155 72 182 -11 12 -34 13 -35 58 -32 57 4 62 17 31 82 -32 68 -66 89 -158 93
-58 3 -84 0 -109 -13z"/>
<path d="M5834 19162 c-6 -4 -30 -119 -53 -257 -23 -137 -45 -258 -47 -267 -5
-16 2 -18 50 -18 31 0 56 3 56 8 0 7 39 233 74 436 9 48 13 92 10 97 -6 11
-74 12 -90 1z"/>
<path d="M6035 19148 c-3 -13 -17 -90 -30 -173 -31 -186 -55 -315 -61 -337 -5
-16 2 -18 50 -18 50 0 56 2 60 23 3 12 16 89 31 172 14 82 28 151 31 154 6 6
8 2 32 -59 11 -30 42 -107 69 -170 l49 -115 51 -3 c60 -4 56 -10 79 135 10 59
29 173 44 253 15 80 25 148 23 153 -2 4 -24 7 -49 7 -55 0 -56 -1 -84 -175
-37 -226 -25 -224 -110 -19 -40 98 -79 182 -84 186 -6 4 -30 8 -53 8 -36 0
-43 -4 -48 -22z"/>
<path d="M6566 19162 c-2 -4 -14 -63 -26 -132 -12 -69 -33 -185 -46 -258 -13
-73 -24 -138 -24 -143 0 -5 73 -9 174 -9 188 0 186 -1 186 56 l0 24 -120 0
-121 0 7 38 c3 20 9 53 13 72 l7 35 99 3 c55 1 103 6 106 10 4 4 10 24 13 45
l7 37 -107 0 -106 0 6 25 c4 14 9 45 13 70 l6 45 122 0 123 0 6 31 c12 62 21
59 -163 59 -94 0 -172 -3 -175 -8z"/>
<path d="M3880 16505 c0 -168 1 -175 20 -175 19 0 20 7 20 175 0 168 -1 175
-20 175 -19 0 -20 -7 -20 -175z"/>
<path d="M4502 16508 c3 -155 5 -173 21 -176 16 -3 17 10 17 172 0 171 -1 176
-20 176 -20 0 -21 -4 -18 -172z"/>
<path d="M3365 16626 c-25 -27 -34 -47 -39 -90 -17 -130 32 -206 131 -206 46
0 77 20 99 62 12 23 13 33 4 42 -9 8 -15 6 -24 -8 -40 -69 -97 -86 -141 -42
-45 45 -48 178 -4 221 25 25 36 28 82 26 21 -1 31 -9 44 -36 11 -22 24 -35 36
-35 13 0 17 5 13 16 -3 9 -6 19 -6 23 0 5 -12 20 -26 35 -22 22 -36 26 -82 26
-49 0 -58 -3 -87 -34z"/>
<path d="M4960 16640 c0 -16 5 -21 23 -18 12 2 22 10 22 18 0 8 -10 16 -22 18
-18 3 -23 -2 -23 -18z"/>
<path d="M5098 16608 c-2 -21 -8 -33 -18 -33 -8 0 -16 -8 -18 -17 -2 -13 3
-18 17 -18 20 0 21 -6 21 -86 0 -101 9 -124 50 -124 34 0 42 25 10 33 -18 5
-20 14 -20 91 0 79 2 86 20 86 11 0 20 6 20 14 0 7 -9 16 -20 19 -15 4 -20 14
-20 36 0 24 -4 31 -19 31 -15 0 -21 -8 -23 -32z"/>
<path d="M3663 16568 c-23 -11 -40 -44 -29 -55 3 -4 15 2 26 12 25 23 87 25
101 5 17 -29 9 -37 -43 -43 -61 -7 -98 -40 -98 -87 0 -53 70 -87 122 -59 14 8
23 8 31 0 6 -6 18 -11 27 -11 13 0 14 15 10 106 -5 98 -7 107 -30 124 -27 21
-82 25 -117 8z m98 -118 c19 0 9 -59 -13 -74 -43 -30 -88 -15 -88 30 0 32 42
58 78 48 8 -2 18 -4 23 -4z"/>
<path d="M4045 16571 c-40 -17 -59 -50 -63 -110 -4 -54 -2 -60 28 -94 27 -32
38 -37 75 -37 45 0 95 34 95 65 0 22 -20 18 -46 -10 -28 -30 -67 -32 -94 -5
-31 31 -28 113 5 145 32 33 51 31 85 -5 32 -34 50 -38 50 -12 -1 52 -76 87
-135 63z"/>
<path d="M4253 16573 c-9 -3 -13 -32 -13 -97 0 -79 3 -97 21 -120 15 -20 29
-26 58 -26 20 0 42 5 49 12 9 9 15 9 24 0 32 -32 38 -14 38 106 0 65 -3 121
-6 125 -3 3 -12 3 -20 0 -11 -4 -14 -28 -14 -99 0 -82 -2 -95 -19 -104 -28
-14 -57 -12 -75 6 -12 12 -16 37 -16 104 0 89 -4 101 -27 93z"/>
<path d="M4873 16568 c-6 -7 -20 -44 -33 -83 -12 -38 -26 -74 -30 -79 -5 -4
-21 31 -36 78 -21 66 -32 86 -46 86 -10 0 -18 -2 -18 -4 0 -6 55 -164 71 -204
8 -18 20 -31 27 -30 13 3 92 205 92 235 0 16 -14 17 -27 1z"/>
<path d="M4960 16456 c0 -120 1 -126 20 -126 20 0 20 5 18 122 -3 108 -5 123
-20 126 -16 3 -18 -8 -18 -122z"/>
<path d="M5279 16565 c-52 -28 -74 -117 -44 -175 32 -61 107 -80 159 -39 36
28 20 46 -20 23 -38 -21 -78 -13 -100 21 -29 44 -14 55 75 55 70 0 79 2 76 18
-2 9 -4 25 -4 35 -1 10 -14 32 -30 48 -33 32 -70 37 -112 14z m92 -33 c4 -4
10 -17 14 -29 6 -22 4 -23 -59 -23 -73 0 -79 7 -40 46 19 20 31 24 52 19 15
-3 30 -9 33 -13z"/>
<path d="M5506 16559 c-21 -16 -26 -28 -24 -52 3 -32 6 -35 92 -74 46 -21 53
-34 31 -57 -24 -24 -63 -20 -90 10 -13 14 -29 23 -34 19 -17 -10 -13 -24 14
-50 49 -50 155 -20 155 44 0 35 -23 56 -76 70 -47 13 -67 31 -58 54 11 31 94
28 94 -3 0 -6 9 -10 20 -10 28 0 25 25 -6 49 -34 27 -84 27 -118 0z"/>
<path d="M5736 16554 c-28 -29 -34 -65 -13 -82 7 -6 37 -19 67 -29 36 -12 56
-24 58 -36 9 -49 -63 -65 -100 -22 -26 30 -38 32 -38 6 0 -11 12 -29 26 -40
56 -44 154 -13 154 49 0 34 -22 52 -87 71 -49 14 -66 44 -37 66 25 19 51 16
74 -7 21 -21 50 -27 50 -10 0 6 -12 22 -26 35 -37 35 -92 34 -128 -1z"/>
<path d="M6003 16570 c-36 -14 -63 -68 -63 -123 0 -42 5 -54 34 -83 27 -27 42
-34 73 -34 42 0 83 23 83 46 0 18 -10 17 -34 -1 -45 -34 -116 -2 -116 52 0 22
3 23 81 23 l82 0 -6 42 c-10 71 -68 105 -134 78z m74 -35 c11 -8 23 -24 26
-35 5 -19 1 -20 -59 -20 -35 0 -64 2 -64 5 0 16 26 55 39 58 29 8 36 7 58 -8z"/>
<path d="M5688 14625 c-26 -7 -62 -25 -81 -39 -19 -14 -39 -26 -45 -26 -15 0
-66 -77 -87 -133 -26 -68 -17 -153 25 -247 44 -98 45 -147 5 -226 -22 -43 -37
-60 -55 -64 -14 -3 -36 -12 -50 -21 -14 -9 -49 -19 -79 -22 -76 -9 -132 -40
-220 -121 -42 -39 -94 -85 -116 -101 -22 -16 -55 -44 -74 -63 -27 -27 -32 -38
-27 -63 5 -26 -2 -37 -77 -109 -45 -44 -87 -80 -93 -80 -34 0 -39 169 -6 235
37 77 90 105 161 85 50 -13 78 -1 86 38 3 15 11 43 17 62 6 19 12 45 14 57 1
13 9 30 18 39 20 20 21 14 -15 72 -27 45 -30 54 -22 93 6 30 4 67 -5 114 -8
38 -16 80 -18 92 -6 32 -59 89 -112 120 -41 24 -56 27 -146 28 -56 0 -120 -6
-143 -13 -42 -13 -100 -59 -121 -97 -10 -20 -11 -20 -34 3 -39 36 -96 31 -138
-13 -19 -19 -40 -35 -46 -35 -19 0 -28 -21 -14 -30 18 -11 2 -32 -20 -25 -11
3 -33 -5 -57 -21 -34 -24 -35 -26 -10 -20 15 3 27 3 27 -1 -1 -16 -36 -51 -55
-55 -14 -3 -19 -11 -18 -26 2 -16 -5 -26 -25 -35 -15 -6 -31 -17 -35 -24 -4
-7 -21 -13 -37 -13 -20 0 -30 -5 -30 -15 0 -8 -12 -17 -27 -21 -16 -3 -39 -11
-53 -17 -24 -11 -23 -12 18 -15 33 -2 42 -7 38 -18 -3 -8 1 -14 10 -14 8 0 12
-4 9 -10 -3 -5 -15 -10 -26 -10 -12 0 -19 -7 -19 -19 0 -16 -7 -19 -44 -19
-27 1 -52 -6 -69 -18 -35 -25 -34 -34 4 -34 17 0 28 -4 24 -10 -3 -5 -15 -10
-26 -10 -12 0 -19 -7 -19 -19 0 -10 -11 -26 -25 -35 -32 -21 -32 -34 2 -38 23
-2 27 -8 28 -33 0 -26 3 -30 25 -28 41 4 103 26 129 45 13 10 28 18 34 18 6 0
32 23 59 50 27 28 52 50 57 50 5 0 35 25 67 55 33 31 69 58 82 61 14 4 34 26
51 56 16 27 43 58 60 69 17 10 31 23 31 29 0 5 4 10 9 10 5 0 12 -18 16 -40 4
-22 12 -40 18 -40 24 0 70 -91 74 -144 5 -68 -36 -146 -83 -158 -21 -5 -67
-43 -131 -106 -88 -88 -110 -104 -208 -152 -61 -29 -124 -63 -142 -76 -17 -13
-36 -24 -42 -24 -5 0 -12 -9 -16 -19 -3 -11 -31 -38 -63 -62 -31 -24 -67 -52
-79 -62 -12 -11 -55 -43 -95 -71 -40 -28 -80 -65 -90 -81 -10 -18 -23 -81 -33
-160 -9 -71 -18 -148 -21 -170 -3 -22 -7 -133 -8 -246 -2 -227 -5 -236 -76
-304 -71 -68 -84 -139 -34 -186 23 -21 26 -22 79 -9 30 7 61 20 69 29 15 17
31 89 75 346 17 98 46 214 74 300 26 77 51 168 56 202 15 98 26 112 119 159
46 24 105 57 133 73 27 17 59 31 71 31 12 0 32 10 44 21 33 31 59 19 50 -24
-4 -17 -9 -100 -12 -183 -3 -113 -9 -167 -23 -215 -23 -74 -97 -190 -170 -269
-54 -58 -60 -70 -36 -90 13 -11 5 -23 -54 -86 -78 -84 -95 -114 -118 -215 -13
-58 -14 -81 -5 -118 19 -76 24 -143 14 -191 -5 -25 -19 -88 -30 -140 -11 -52
-28 -149 -37 -215 -9 -66 -20 -145 -26 -175 -22 -120 -22 -120 -3 -142 38 -42
373 -254 509 -323 176 -89 236 -115 257 -115 9 0 40 19 70 43 29 23 61 47 70
52 8 6 92 61 184 124 93 63 216 139 274 168 90 47 109 53 142 48 34 -6 47 -1
111 38 39 25 82 59 95 77 46 61 29 191 -38 301 l-28 46 24 42 c14 22 32 41 39
41 8 0 68 -52 132 -115 89 -87 123 -115 137 -111 19 5 127 -60 297 -177 115
-81 121 -105 45 -198 -73 -91 -110 -172 -130 -291 -6 -33 4 -181 20 -296 7
-44 7 -44 43 -39 120 16 244 42 255 53 7 7 19 41 25 76 46 235 94 419 131 496
45 94 50 143 25 247 -24 100 -143 321 -234 435 -40 49 -48 66 -40 77 9 10 -4
30 -57 88 -116 127 -192 227 -229 300 -90 178 -59 370 99 613 45 68 49 72 85
72 54 0 134 16 316 62 159 41 161 41 327 39 186 -2 214 4 204 45 -4 16 -1 30
9 40 17 18 20 40 5 49 -5 3 -10 22 -10 40 0 24 -6 38 -20 45 -11 6 -20 19 -20
29 0 37 -69 63 -109 41 -12 -6 -47 -15 -77 -20 -48 -8 -62 -16 -98 -55 -42
-45 -43 -45 -112 -46 -38 -1 -71 -1 -74 -1 -3 0 -69 4 -148 8 -78 4 -145 10
-147 15 -3 4 6 30 20 57 34 69 35 187 1 327 -30 122 -84 261 -119 307 -26 33
-26 34 -11 88 20 71 43 90 106 90 69 0 88 12 88 58 0 20 7 50 15 66 8 15 15
37 15 47 0 11 10 23 24 29 35 13 37 30 6 85 -23 42 -27 61 -26 121 1 63 4 74
25 91 20 17 23 25 17 56 -6 31 -11 37 -32 37 -16 0 -39 14 -62 38 -61 62 -123
87 -222 89 -47 1 -106 -5 -132 -12z m-554 -1393 c2 -4 10 -53 16 -109 11 -104
4 -186 -24 -267 -12 -34 -14 -35 -28 -19 -8 10 -35 53 -58 95 -24 43 -61 101
-83 129 -21 28 -37 52 -35 53 2 1 24 14 50 29 26 15 53 33 60 40 50 48 90 68
102 49z m-343 -644 c8 -7 28 -33 44 -58 38 -60 104 -120 132 -120 13 0 23 -2
23 -4 0 -3 -23 -28 -52 -58 -77 -79 -89 -114 -100 -297 -9 -152 -18 -211 -37
-241 -9 -12 -15 -13 -48 -1 -80 29 -206 96 -249 134 -50 44 -50 41 -14 142 12
32 28 93 35 135 25 139 54 227 88 270 22 29 130 103 158 109 3 0 12 -5 20 -11z
m-475 -1129 c42 -23 108 -54 147 -70 39 -15 73 -32 75 -38 5 -16 -53 -138 -84
-174 -41 -49 -54 -55 -181 -88 -122 -30 -208 -59 -242 -81 -11 -7 -23 -9 -26
-6 -4 4 31 93 78 200 46 106 87 205 91 220 22 93 34 96 142 37z m-146 -759 c0
-5 -2 -10 -4 -10 -3 0 -8 5 -11 10 -3 6 -1 10 4 10 6 0 11 -4 11 -10z"/>
<path d="M3551 10896 c-11 -13 -68 -42 -159 -81 -32 -14 -41 -22 -37 -35 4
-13 -20 -44 -83 -106 -77 -77 -96 -104 -141 -194 -117 -238 -246 -420 -297
-420 -22 0 -60 -14 -129 -47 -16 -7 -43 -32 -59 -54 -15 -22 -46 -51 -67 -65
-21 -13 -39 -28 -39 -33 0 -18 102 -121 119 -121 32 0 61 -44 71 -105 8 -51
16 -66 57 -107 26 -26 61 -54 77 -62 37 -16 223 -39 260 -31 14 3 37 7 51 10
55 12 14 71 -82 119 -28 14 -54 30 -57 35 -3 5 -6 43 -7 84 -1 62 3 81 20 105
25 35 27 57 6 48 -11 -4 -15 1 -15 17 0 13 -5 28 -11 34 -9 9 -7 21 6 50 26
54 106 156 115 146 4 -4 10 -57 13 -118 5 -121 13 -148 85 -277 38 -68 47 -78
72 -78 35 0 55 23 52 62 -3 34 44 228 59 243 5 5 9 19 9 31 0 12 7 27 15 34 8
7 15 20 15 29 0 9 14 36 30 61 16 25 33 61 36 80 10 54 25 72 150 177 185 156
202 165 225 121 22 -40 63 -77 103 -90 29 -10 44 -24 62 -56 13 -23 24 -52 24
-63 0 -17 23 -63 40 -79 3 -3 27 -34 55 -70 57 -74 120 -140 158 -165 25 -16
27 -16 52 9 29 29 30 36 10 102 -9 27 -20 63 -25 79 -5 17 -10 84 -12 149 -2
115 -2 119 20 127 27 10 28 21 4 34 -20 11 -125 62 -192 93 -61 29 -196 102
-245 134 -22 14 -59 37 -82 49 -47 27 -122 78 -230 156 -79 58 -85 60 -102 39z"/>
<path d="M6070 10253 c-14 -2 -57 -11 -97 -19 -40 -8 -88 -14 -108 -14 -32 0
-35 -2 -35 -29 0 -17 -4 -33 -10 -36 -6 -4 -10 -55 -10 -119 0 -100 -2 -115
-20 -131 -15 -14 -19 -26 -15 -49 5 -25 -4 -48 -45 -116 -64 -108 -65 -143 -5
-177 22 -12 82 -29 135 -39 52 -9 149 -30 215 -46 161 -39 323 -55 410 -40 75
12 72 11 75 32 8 52 0 70 -37 86 -119 51 -156 70 -164 86 -5 10 -16 18 -24 18
-9 0 -25 11 -37 25 -12 14 -28 25 -35 25 -7 0 -18 9 -25 20 -7 11 -17 20 -23
20 -6 0 -35 18 -65 41 -72 53 -83 90 -65 210 16 106 26 259 17 258 -4 -1 -18
-4 -32 -6z"/>
<path d="M4714 8776 c-10 -26 4 -48 28 -44 17 2 23 10 23 28 0 18 -6 26 -23
28 -13 2 -25 -3 -28 -12z"/>
<path d="M3192 8768 c3 -7 29 -82 58 -166 l53 -153 35 3 c32 3 37 7 50 48 8
25 32 93 53 152 21 60 39 112 39 118 0 5 -15 10 -33 10 l-34 0 -28 -97 c-47
-164 -47 -164 -84 -42 -18 57 -34 112 -37 122 -4 12 -16 17 -41 17 -24 0 -34
-4 -31 -12z"/>
<path d="M3790 8721 c0 -20 -6 -30 -19 -34 -26 -6 -24 -47 1 -47 16 0 18 -10
18 -79 0 -83 9 -103 50 -116 23 -7 60 10 60 29 0 8 -11 17 -25 20 -24 6 -25
10 -25 76 0 63 2 70 20 70 15 0 20 7 20 25 0 18 -5 25 -20 25 -16 0 -20 7 -20
30 0 27 -3 30 -30 30 -26 0 -30 -3 -30 -29z"/>
<path d="M4850 8720 c0 -23 -4 -30 -20 -30 -28 0 -28 -46 0 -53 17 -4 20 -15
22 -88 3 -79 5 -85 28 -96 15 -7 36 -10 48 -6 28 7 29 39 2 48 -17 6 -20 15
-20 76 0 62 2 69 20 69 15 0 20 7 20 25 0 18 -5 25 -20 25 -16 0 -20 7 -20 30
0 27 -3 30 -30 30 -27 0 -30 -3 -30 -30z"/>
<path d="M3547 8670 c-56 -44 -59 -145 -7 -195 56 -54 157 -31 181 42 29 90
-20 173 -105 173 -28 0 -52 -7 -69 -20z m111 -55 c32 -69 -14 -150 -65 -117
-32 20 -38 97 -11 129 19 23 64 16 76 -12z"/>
<path d="M3940 8570 l0 -120 30 0 30 0 0 78 c0 87 5 100 40 105 18 3 26 11 28
30 4 30 -14 35 -49 17 -13 -7 -19 -7 -19 0 0 5 -13 10 -30 10 l-30 0 0 -120z"/>
<path d="M4130 8662 c-54 -54 -46 -158 15 -198 40 -26 109 -24 137 3 31 31 13
50 -33 34 -37 -13 -82 3 -87 32 -3 15 6 17 74 17 l77 0 -6 47 c-7 63 -40 93
-103 93 -37 0 -51 -6 -74 -28z m114 -38 c10 -25 -2 -34 -45 -34 -40 0 -51 14
-27 38 17 17 65 15 72 -4z"/>
<path d="M4452 8677 c2 -7 19 -61 38 -120 34 -105 36 -107 66 -107 29 0 31 3
67 104 45 127 46 136 8 136 -28 0 -30 -3 -46 -72 -21 -85 -30 -100 -39 -61 -4
15 -14 52 -22 81 -13 48 -17 52 -45 52 -20 0 -29 -4 -27 -13z"/>
<path d="M4710 8570 l0 -120 30 0 30 0 0 120 0 120 -30 0 -30 0 0 -120z"/>
<path d="M5041 8676 c-35 -19 -50 -54 -51 -113 0 -44 5 -58 28 -84 24 -27 35
-31 79 -32 33 -1 60 5 78 17 25 16 26 20 12 33 -12 13 -21 13 -47 4 -38 -13
-83 3 -88 32 -3 15 6 17 71 17 40 0 76 2 79 5 13 14 -12 91 -37 112 -30 26
-86 30 -124 9z m97 -63 c3 -21 -1 -23 -36 -23 -46 0 -55 6 -41 32 15 28 73 21
77 -9z"/>
<path d="M5263 8668 c-47 -50 -22 -109 52 -122 18 -4 39 -14 46 -22 11 -14 10
-18 -6 -30 -25 -18 -31 -18 -55 6 -19 19 -70 28 -70 12 0 -22 35 -53 71 -62
69 -19 128 14 129 71 0 32 -15 46 -77 68 -35 12 -48 22 -48 36 0 26 52 34 61
11 7 -18 64 -22 64 -6 0 6 -11 22 -25 35 -33 34 -112 36 -142 3z"/>
<path d="M5504 8679 c-12 -6 -28 -22 -35 -36 -20 -38 4 -74 64 -94 64 -21 78
-36 53 -55 -26 -18 -32 -18 -56 6 -23 23 -70 27 -70 7 0 -8 11 -24 24 -36 19
-18 36 -23 77 -23 45 0 57 4 76 26 43 50 20 95 -59 117 -48 12 -62 27 -46 46
14 17 43 16 58 -2 13 -16 70 -21 70 -6 0 5 -8 19 -18 31 -21 26 -103 37 -138
19z"/>
<path d="M5747 8679 c-48 -28 -64 -144 -26 -192 23 -30 89 -52 122 -41 12 4
32 14 45 22 20 13 21 17 9 29 -11 11 -22 12 -50 5 -40 -11 -80 3 -85 31 -3 15
6 17 72 17 l76 0 0 41 c0 58 -42 99 -102 99 -24 0 -51 -5 -61 -11z m97 -55
c11 -29 6 -34 -39 -34 -46 0 -58 13 -33 38 17 17 65 15 72 -4z"/>
<path d="M5967 8503 c-13 -12 -7 -51 8 -57 24 -9 45 4 45 29 0 27 -36 46 -53
28z"/>
<path d="M6103 8503 c-7 -2 -13 -16 -13 -29 0 -20 5 -24 31 -24 27 0 30 3 27
27 -3 27 -20 37 -45 26z"/>
<path d="M6233 8503 c-17 -6 -16 -38 1 -52 22 -18 48 -2 44 28 -3 25 -20 35
-45 24z"/>
<path d="M4563 7758 c-39 -15 -53 -26 -53 -40 0 -15 4 -18 18 -13 9 4 27 10
40 12 22 5 22 5 22 -131 0 -129 1 -136 20 -136 19 0 20 7 20 165 0 91 -3 164
-7 164 -5 -1 -32 -10 -60 -21z"/>
<path d="M4815 7670 c-38 -59 -71 -115 -73 -124 -3 -12 10 -16 70 -18 l73 -3
3 -37 c3 -30 7 -38 23 -38 16 0 19 7 19 40 0 33 3 40 20 40 11 0 20 7 20 15 0
8 -9 15 -20 15 -19 0 -20 7 -20 110 0 108 0 110 -22 109 -18 0 -39 -25 -93
-109z m75 -35 l0 -75 -50 0 c-27 0 -50 3 -50 6 0 8 90 144 96 144 2 0 4 -34 4
-75z"/>
<path d="M2882 6213 c3 -26 7 -28 51 -31 l47 -3 0 -134 c0 -141 1 -144 49
-137 l26 4 -2 131 -2 132 52 5 c48 5 52 7 55 33 l3 27 -141 0 -141 0 3 -27z"/>
<path d="M3223 6146 c-86 -39 -84 -196 2 -232 47 -19 84 -18 123 6 36 22 39
32 17 50 -13 10 -20 11 -39 1 -32 -17 -66 -10 -84 17 l-14 22 76 0 c56 0 78 4
82 14 8 22 -14 91 -35 110 -26 24 -89 30 -128 12z m85 -68 c3 -15 -4 -18 -32
-18 -34 0 -47 15 -29 34 13 13 58 1 61 -16z"/>
<path d="M3525 6151 c-11 -4 -39 -6 -62 -3 l-43 5 0 -120 c0 -66 2 -122 5
-125 3 -2 18 -3 35 0 l30 4 0 82 c0 92 7 109 41 104 23 -3 24 -7 27 -95 l3
-93 34 0 35 0 0 84 c0 88 10 111 47 104 15 -3 19 -17 23 -98 4 -67 9 -95 18
-94 6 1 21 2 32 3 19 1 20 8 20 101 0 94 -2 103 -25 125 -28 28 -58 31 -98 10
-26 -13 -31 -13 -50 0 -23 16 -41 18 -72 6z"/>
<path d="M3917 6154 c-4 -4 -29 -6 -57 -5 l-50 1 0 -170 0 -170 40 0 40 0 -2
53 c-2 42 0 51 12 48 48 -13 67 -11 92 9 52 40 62 155 19 207 -18 22 -81 40
-94 27z m37 -76 c32 -45 7 -122 -37 -116 -19 3 -22 10 -25 57 -2 29 -1 60 2
67 8 21 43 17 60 -8z"/>
<path d="M4113 6150 c-27 -11 -43 -40 -43 -79 0 -34 26 -57 78 -67 35 -7 57
-27 47 -44 -10 -17 -41 -12 -60 10 -20 22 -65 24 -72 4 -2 -7 7 -24 20 -39 18
-21 35 -29 73 -32 43 -5 54 -2 82 22 60 50 33 110 -60 136 -29 7 -38 15 -36
27 4 22 46 28 54 8 7 -17 74 -23 74 -7 0 6 -10 22 -23 36 -25 30 -94 43 -134
25z"/>
<path d="M4453 6150 c-45 -18 -57 -86 -21 -119 12 -12 36 -24 54 -27 57 -11
72 -54 19 -54 -15 0 -26 7 -30 21 -5 16 -14 19 -38 17 -40 -4 -44 -21 -14 -52
64 -64 187 -35 187 44 0 38 -30 65 -87 79 -33 9 -44 16 -41 29 4 22 46 28 54
8 7 -18 74 -23 74 -5 0 51 -91 86 -157 59z"/>
<path d="M4818 6152 l-28 -3 0 -89 c0 -87 -1 -90 -24 -96 -41 -10 -46 2 -46
97 l0 89 -35 0 -35 0 0 -104 c0 -101 1 -105 26 -125 29 -23 65 -27 95 -10 11
6 26 7 32 2 7 -5 21 -8 32 -8 19 0 20 8 23 119 1 66 -1 122 -5 125 -4 4 -20 5
-35 3z"/>
<path d="M5001 6151 c-7 -5 -31 -6 -53 -4 l-39 6 3 -124 3 -123 30 0 30 0 5
89 5 90 33 3 c29 3 32 6 32 38 0 35 -18 45 -49 25z"/>
<path d="M5240 6147 c-39 -20 -62 -73 -56 -132 7 -62 32 -97 78 -109 62 -16
125 15 130 63 4 33 -41 40 -67 11 -39 -43 -75 -15 -75 57 0 60 45 87 72 43 12
-19 57 -28 71 -14 3 3 1 19 -5 36 -17 49 -94 72 -148 45z"/>
<path d="M5494 6150 c-42 -17 -64 -58 -64 -121 0 -50 4 -63 28 -89 52 -59 152
-48 187 20 19 38 19 103 -1 141 -24 47 -96 71 -150 49z m90 -81 c15 -43 -1
-98 -30 -105 -14 -4 -31 -1 -39 6 -19 15 -20 101 -3 118 21 21 62 10 72 -19z"/>
<path d="M5845 6152 c-3 -3 -5 -45 -5 -93 0 -87 -1 -89 -26 -95 -14 -4 -29 -3
-34 2 -5 5 -10 47 -12 94 l-3 85 -32 3 -33 3 0 -105 c0 -82 3 -108 16 -120 21
-22 58 -30 92 -20 15 4 32 6 37 4 6 -1 21 -3 35 -4 l25 -1 3 121 3 122 -31 4
c-16 3 -32 2 -35 0z"/>
<path d="M5964 6145 c-3 -6 -3 -62 -2 -125 l3 -114 30 -1 30 0 5 90 5 90 33 3
c28 3 32 7 32 33 0 35 -19 45 -50 29 -13 -7 -25 -8 -29 -4 -9 13 -52 12 -57
-1z"/>
<path d="M6160 6148 c-13 -7 -31 -26 -40 -41 -23 -40 1 -77 63 -98 54 -18 72
-32 63 -48 -12 -18 -55 -12 -66 9 -7 13 -21 20 -41 20 -26 0 -30 -3 -27 -22 2
-12 19 -33 38 -46 47 -32 114 -26 147 13 13 14 23 34 23 43 0 30 -28 60 -68
73 -57 18 -72 28 -66 44 8 19 50 19 58 0 6 -17 76 -22 76 -6 0 6 -10 22 -23
36 -27 32 -97 44 -137 23z"/>
<path d="M6420 6153 c-30 -11 -60 -48 -71 -86 -29 -107 56 -190 162 -158 44
13 53 23 44 51 -7 21 -39 27 -50 10 -15 -25 -85 1 -85 31 0 5 34 9 75 9 l75 0
0 29 c0 15 -5 42 -11 59 -16 46 -87 74 -139 55z m68 -65 c21 -21 13 -28 -28
-28 -22 0 -40 4 -40 8 0 14 23 32 40 32 9 0 21 -5 28 -12z"/>
<path d="M5355 4540 c-11 -19 6 -30 46 -30 l39 0 0 -120 0 -120 30 0 30 0 0
120 0 120 39 0 c34 0 40 3 38 20 -1 19 -8 20 -109 20 -60 0 -110 -4 -113 -10z"/>
<path d="M5615 4456 c-30 -30 -41 -87 -25 -127 23 -55 105 -77 150 -41 33 27
18 43 -31 36 -25 -4 -44 -2 -54 6 -28 23 -16 30 50 30 l65 0 0 31 c0 74 -102
117 -155 65z m83 -28 c21 -21 13 -38 -17 -38 -37 0 -46 13 -25 34 19 19 26 20
42 4z"/>
<path d="M5790 4374 l0 -104 30 0 30 0 0 79 c0 69 2 79 19 84 32 8 40 -6 43
-83 3 -73 4 -75 30 -78 l27 -3 3 78 c3 77 3 78 31 81 l27 3 0 -80 0 -81 30 0
30 0 0 85 c0 72 -3 88 -20 105 -22 22 -60 26 -91 9 -13 -7 -24 -7 -32 -1 -7 6
-45 10 -84 10 l-73 -1 0 -103z"/>
<path d="M6122 4337 l3 -142 28 -3 c26 -3 27 -2 27 42 0 45 0 45 31 39 58 -11
99 34 99 109 0 37 -25 85 -47 91 -10 3 -46 5 -81 6 l-63 0 3 -142z m128 45 c0
-48 -12 -65 -41 -60 -21 3 -24 9 -27 48 -3 33 1 47 14 57 28 20 54 -1 54 -45z"/>
<path d="M6368 4469 c-55 -31 -38 -87 31 -108 45 -13 57 -41 17 -41 -14 0 -28
5 -31 10 -10 16 -55 12 -55 -4 0 -8 12 -24 28 -36 21 -17 36 -21 69 -17 102
11 99 100 -4 122 -39 8 -45 35 -9 35 14 0 28 -4 31 -10 9 -15 55 -12 55 3 0 7
-9 23 -20 35 -22 24 -81 30 -112 11z"/>
<path d="M5514 3356 c-9 -24 4 -48 23 -44 12 2 18 12 18 28 0 29 -32 41 -41
16z"/>
<path d="M2909 3338 c-7 -13 -34 -56 -61 -96 -26 -41 -48 -78 -48 -83 0 -5 27
-9 60 -9 l60 0 0 -35 c0 -28 4 -35 20 -35 16 0 20 7 20 35 0 28 4 35 20 35 11
0 20 5 20 11 0 6 -9 13 -20 16 -18 5 -20 14 -20 94 0 82 -2 89 -20 89 -10 0
-25 -10 -31 -22z m8 -155 c-3 -2 -21 -3 -41 -1 l-36 3 38 58 37 58 3 -56 c2
-32 1 -59 -1 -62z"/>
<path d="M3084 3348 c-32 -15 -44 -51 -44 -134 0 -70 2 -78 29 -105 36 -36 70
-37 108 -5 27 23 28 28 28 116 0 88 -1 93 -28 116 -30 25 -58 29 -93 12z m80
-40 c11 -15 16 -45 16 -88 0 -75 -18 -110 -55 -110 -38 0 -55 35 -55 113 0 38
5 77 10 88 15 27 64 25 84 -3z"/>
<path d="M3304 3348 c-12 -5 -27 -21 -33 -34 -14 -32 -14 -156 0 -188 23 -49
97 -57 136 -14 15 16 18 37 18 110 0 86 -1 91 -28 114 -30 25 -58 29 -93 12z
m83 -48 c16 -32 16 -128 0 -160 -15 -30 -58 -38 -81 -15 -19 19 -23 153 -5
186 15 29 69 22 86 -11z"/>
<path d="M5023 3338 c-39 -15 -53 -26 -53 -40 0 -17 5 -19 30 -13 l30 7 0
-106 0 -106 25 0 25 0 0 140 c0 77 -1 140 -2 139 -2 0 -27 -10 -55 -21z"/>
<path d="M5957 3270 c-31 -49 -57 -99 -57 -110 0 -18 7 -20 55 -20 54 0 55 0
55 -30 0 -25 4 -30 25 -30 21 0 25 5 25 30 0 23 4 30 20 30 13 0 20 7 20 19 0
10 -9 21 -20 24 -18 5 -20 14 -20 91 0 83 -1 86 -23 86 -19 0 -35 -19 -80 -90z
m53 -40 c0 -46 -2 -50 -23 -50 -13 0 -26 3 -29 6 -5 5 42 93 50 94 1 0 2 -22
2 -50z"/>
<path d="M6180 3353 c-21 -9 -49 -45 -50 -65 0 -27 43 -23 55 5 13 30 50 34
65 7 16 -30 6 -50 -55 -117 -31 -33 -54 -67 -55 -80 0 -22 3 -23 90 -23 83 0
90 1 90 20 0 18 -7 20 -55 20 -30 0 -55 3 -55 6 0 4 20 32 45 62 52 62 60 86
46 125 -15 38 -74 58 -121 40z"/>
<path d="M3473 3188 c2 -89 4 -103 20 -106 15 -3 17 6 17 75 0 83 9 103 45
103 36 0 45 -20 45 -102 0 -63 3 -78 15 -78 12 0 15 15 15 79 0 87 10 105 57
99 l28 -3 3 -87 c2 -69 6 -88 17 -88 12 0 15 18 15 89 0 82 -2 91 -22 105 -28
20 -58 20 -83 2 -16 -11 -22 -11 -46 3 -23 13 -34 14 -58 4 -17 -6 -31 -7 -31
-2 0 5 -9 9 -19 9 -18 0 -19 -8 -18 -102z"/>
<path d="M5170 3185 c0 -105 0 -105 25 -105 23 0 24 3 27 76 3 81 17 104 52
91 13 -5 16 -22 16 -87 l0 -80 30 0 29 0 3 82 c3 73 5 83 22 86 31 6 46 -26
46 -100 0 -66 1 -68 25 -68 24 0 25 2 25 69 0 84 -11 117 -45 133 -21 9 -32 8
-60 -5 -19 -9 -35 -13 -35 -8 0 16 -58 23 -81 10 -17 -9 -24 -9 -27 0 -2 6
-15 11 -28 11 -24 0 -24 -1 -24 -105z"/>
<path d="M5510 3185 l0 -105 25 0 25 0 0 105 0 105 -25 0 -25 0 0 -105z"/>
<path d="M5600 3185 l0 -105 25 0 c24 0 25 2 25 74 0 80 13 103 50 91 18 -6
20 -15 20 -86 0 -78 0 -79 25 -79 25 0 25 1 25 90 0 85 -1 90 -26 107 -22 14
-31 15 -57 5 -21 -8 -33 -9 -35 -2 -2 5 -15 10 -28 10 -24 0 -24 -1 -24 -105z"/>
<path d="M6383 3280 c-27 -11 -45 -43 -37 -65 7 -17 54 -45 77 -45 8 0 20 -7
28 -16 10 -13 10 -17 -2 -25 -20 -13 -35 -11 -53 6 -18 19 -56 20 -56 2 0 -27
41 -52 85 -52 102 0 114 87 15 112 -37 10 -52 39 -25 49 8 4 24 -1 34 -10 36
-33 73 -13 43 23 -19 24 -76 35 -109 21z"/>
<path d="M6604 3280 c-57 -23 -73 -116 -30 -167 20 -23 32 -28 70 -28 30 0 51
6 63 17 25 26 6 41 -34 26 -28 -10 -35 -9 -52 7 -12 10 -21 22 -21 27 0 4 29
8 65 8 l65 0 0 31 c0 20 -10 40 -29 60 -30 29 -58 35 -97 19z m66 -49 c15 -29
13 -31 -30 -31 -43 0 -49 9 -24 34 21 21 41 20 54 -3z"/>
<path d="M6780 3262 c-56 -56 -33 -161 39 -177 44 -9 101 25 101 61 0 11 -49
2 -60 -11 -30 -36 -63 0 -58 62 4 49 32 66 58 36 20 -25 60 -31 60 -9 0 26
-35 57 -72 63 -32 5 -41 1 -68 -25z"/>
<path d="M3160 2025 c0 -122 2 -145 15 -145 11 0 15 11 15 39 0 21 6 44 14 50
11 9 20 3 45 -30 17 -23 32 -46 34 -52 1 -5 11 -8 21 -6 15 3 11 12 -23 61
-23 31 -41 60 -41 64 0 5 17 25 37 46 29 29 33 38 19 38 -10 0 -37 -21 -61
-47 l-44 -48 -1 88 c0 70 -3 87 -15 87 -13 0 -15 -23 -15 -145z"/>
<path d="M5514 2156 c-9 -24 4 -48 23 -44 12 2 18 12 18 28 0 29 -32 41 -41
16z"/>
<path d="M3000 2141 c-24 -10 -46 -24 -48 -31 -5 -13 11 -11 51 5 16 7 17 -3
17 -114 0 -101 2 -121 15 -121 13 0 15 22 15 140 0 77 -1 140 -2 139 -2 0 -23
-8 -48 -18z"/>
<path d="M5003 2070 c-29 -48 -53 -98 -53 -109 0 -19 6 -21 55 -21 54 0 55 0
55 -30 0 -25 4 -30 25 -30 21 0 25 5 25 30 0 20 5 30 15 30 9 0 15 9 15 25 0
16 -6 25 -15 25 -12 0 -15 16 -15 85 l0 85 -27 0 c-24 -1 -35 -13 -80 -90z
m54 -77 c-3 -2 -17 -3 -31 -1 l-26 3 28 45 27 45 3 -44 c2 -23 1 -45 -1 -48z"/>
<path d="M5973 2138 c-39 -15 -53 -26 -53 -40 0 -16 5 -18 35 -12 l35 6 0
-106 0 -106 25 0 25 0 0 140 c0 77 -3 139 -7 139 -5 -1 -32 -10 -60 -21z"/>
<path d="M6120 2140 c0 -18 7 -20 65 -20 36 0 65 -2 65 -5 0 -3 -21 -51 -46
-107 -25 -57 -48 -109 -51 -116 -4 -10 2 -13 22 -10 25 3 32 15 81 128 29 69
54 131 54 138 0 9 -25 12 -95 12 -88 0 -95 -1 -95 -20z"/>
<path d="M3350 1985 c0 -87 3 -105 15 -105 12 0 15 14 16 63 1 34 1 66 0 70
-4 22 22 47 49 47 39 0 45 -12 46 -100 1 -61 4 -76 18 -78 14 -3 16 7 16 71 0
97 4 107 45 107 41 0 45 -10 45 -106 0 -59 3 -74 15 -74 12 0 15 16 15 85 0
72 -3 88 -20 105 -24 24 -57 26 -88 4 -20 -14 -24 -14 -38 0 -18 18 -47 20
-74 6 -13 -7 -21 -7 -25 0 -3 5 -13 10 -21 10 -11 0 -14 -20 -14 -105z"/>
<path d="M5170 1985 l0 -105 25 0 c24 0 25 2 25 74 0 78 12 101 47 94 15 -3
18 -15 21 -63 3 -86 9 -105 32 -105 23 0 29 19 32 105 3 48 6 60 21 63 35 7
47 -16 47 -95 0 -71 1 -74 23 -71 19 3 22 10 25 60 4 77 -9 120 -40 138 -24
13 -30 13 -60 -2 -28 -13 -35 -13 -46 -2 -16 17 -46 18 -75 3 -16 -9 -22 -9
-25 0 -2 6 -15 11 -28 11 -24 0 -24 -1 -24 -105z"/>
<path d="M5510 1985 l0 -105 25 0 25 0 0 105 0 105 -25 0 -25 0 0 -105z"/>
<path d="M5600 1985 c0 -105 0 -105 25 -105 23 0 24 3 27 76 3 81 17 104 52
91 13 -5 16 -22 16 -87 0 -79 0 -80 25 -80 25 0 25 1 25 90 0 85 -1 90 -26
107 -22 14 -31 15 -57 5 -21 -8 -33 -9 -35 -2 -2 5 -15 10 -28 10 -24 0 -24
-1 -24 -105z"/>
<path d="M6383 2080 c-12 -5 -27 -18 -33 -29 -16 -31 3 -58 53 -73 58 -17 75
-41 36 -53 -13 -4 -27 -1 -38 9 -21 19 -61 21 -61 3 0 -8 9 -22 21 -33 44 -40
149 -14 149 36 0 24 -33 51 -72 59 -24 5 -34 13 -36 29 -3 18 2 22 21 22 14 0
27 -7 31 -15 6 -16 41 -21 50 -6 3 5 -2 19 -12 30 -19 24 -76 35 -109 21z"/>
<path d="M6579 2061 c-23 -24 -29 -38 -29 -73 0 -55 20 -84 69 -99 31 -9 43
-8 69 5 49 25 37 57 -12 35 -20 -10 -30 -9 -51 5 -40 26 -30 36 41 36 l67 0
-6 38 c-13 78 -93 107 -148 53z m89 -23 c24 -24 13 -38 -28 -38 -43 0 -45 2
-30 31 12 21 40 25 58 7z"/>
<path d="M6780 2062 c-72 -72 -9 -205 82 -173 29 10 57 36 58 54 0 13 -43 7
-60 -8 -34 -31 -66 7 -58 70 5 43 32 54 62 26 24 -22 56 -24 56 -2 0 22 -38
52 -72 58 -32 5 -41 1 -68 -25z"/>
<path d="M4660 761 c-66 -23 -124 -83 -141 -145 -38 -141 106 -292 244 -255
156 42 217 219 114 335 -61 70 -136 93 -217 65z m169 -49 c48 -38 70 -85 71
-150 0 -105 -75 -182 -181 -182 -98 0 -179 84 -179 185 0 48 25 108 57 137 62
56 169 61 232 10z"/>
<path d="M4673 690 c-21 -9 -45 -26 -54 -36 -76 -89 -13 -227 101 -226 100 2
169 106 126 190 -37 72 -108 101 -173 72z"/>
<path d="M2634 697 c-2 -7 -3 -69 -2 -138 l3 -124 130 0 130 0 3 129 c2 97 -1
131 -10 138 -7 4 -66 8 -131 8 -88 0 -119 -3 -123 -13z"/>
<path d="M6725 690 c-16 -11 -67 -41 -112 -67 -46 -26 -83 -52 -83 -58 0 -6
38 -33 85 -60 47 -28 100 -59 118 -71 54 -34 57 -28 57 132 0 160 -3 166 -65
124z"/>
</g>
</svg>
